<?xml version="1.0" encoding="utf-8"?>
<!-- Generator: Adobe Illustrator 25.0.1, SVG Export Plug-In . SVG Version: 6.00 Build 0)  -->
<svg version="1.1" id="Layer_1" xmlns="http://www.w3.org/2000/svg" xmlns:xlink="http://www.w3.org/1999/xlink" x="0px" y="0px"
	 viewBox="0 0 707.1 509.7" style="enable-background:new 0 0 707.1 509.7;" xml:space="preserve">
<style type="text/css">
	.st0{fill:#343a40;}
</style>
<g>
	<path class="st0" d="M0,315.2c0-1,0.8-1.8,1.8-1.8h3.1c1,0,1.8,0.8,1.8,1.8V410c0,1.1-1,1.8-2,1.8h-3c-1,0-1.8-0.8-1.8-1.8v-94.8H0
		z"/>
	<path class="st0" d="M63.3,315.2c0-1,0.8-1.8,1.7-1.8h29.8c27.3,0,49.5,22.1,49.5,49.1c0,27.4-22.2,49.4-49.5,49.4H65
		c-0.8,0-1.7-0.8-1.7-1.8V315.2z M93.7,405.8c25.1,0,43.6-18.7,43.6-43.3c0-24.3-18.4-43.1-43.6-43.1H69.9v86.4H93.7z"/>
	<path class="st0" d="M192,315.2c0-1,0.8-1.8,1.8-1.8h56.4c1,0,1.8,0.8,1.8,1.8v2.4c0,1-0.8,1.8-1.8,1.8h-51.5v38.8h44.6
		c1,0,1.8,0.8,1.8,1.8v2.4c0,1-0.8,1.8-1.8,1.8h-44.6V406h51.5c1,0,1.8,0.8,1.8,1.8v2.3c0,1-0.8,1.8-1.8,1.8h-56.4
		c-1,0-1.8-0.8-1.8-1.8L192,315.2L192,315.2z"/>
	<path class="st0" d="M288,410.2l43.3-97.3c0.3-0.6,1-1,1.7-1h0.4c0.7,0,1.4,0.1,1.8,1l42.9,97.3c0.3,0.8,0.3,1.7-1.3,1.7h-3.7
		c-1,0-1.7-0.7-2-1.3l-11.4-25.9h-53.8l-11.3,25.9c-0.3,0.6-1,1.3-2,1.3h-3.9C288,411.9,287.5,411.3,288,410.2 M357.5,379.2
		l-24.1-56h-0.3l-24.5,56H357.5z"/>
	<path class="st0" d="M420,316c0-1.4,1.1-2.7,2.7-2.7h9.3c1.4,0,2.7,1.3,2.7,2.7v82.8h38.1c1.5,0,2.7,1.3,2.7,2.7v7.7
		c0,1.4-1.1,2.7-2.7,2.7h-50.1c-1.5,0-2.7-1.3-2.7-2.7V316z"/>
	<path class="st0" d="M506.5,408.2l43.2-94.7c0.4-0.8,1.7-1.5,2.4-1.5h1.4c0.7,0,2,0.7,2.4,1.5l42.9,94.7c0.8,1.8-0.3,3.7-2.4,3.7
		h-8.9c-1.7,0-2.7-0.8-3.2-2.1l-8.7-19.3h-46l-8.6,19.3c-0.4,1-1.5,2.1-3.2,2.1h-8.9C506.8,411.9,505.7,410,506.5,408.2
		 M570.3,378.4L553,339.8h-0.7l-17.2,38.6H570.3z"/>
	<path class="st0" d="M690.5,361.9c8.4,3.2,16.6,10.3,16.6,22.8c0,15.8-12.9,27.2-30.7,27.2h-33.1c-1.5,0-2.7-1.3-2.7-2.7V316
		c0-1.4,1.1-2.7,2.7-2.7h31.5c17,0,29.3,11.3,29.3,26c0,10.6-5.9,18.4-13.7,22.2v0.4H690.5z M676.8,398.9c9.6,0,14.6-6.6,14.6-15.3
		c0-8.6-6.5-14.8-14.6-14.8h-22v30.1L676.8,398.9L676.8,398.9z M673.5,356.1c9,0,15.1-6.2,15.1-15.1c0-9.3-6.1-14.5-15.1-14.5H655
		v29.6H673.5z"/>
	<path class="st0" d="M154.2,470c0-0.3,0.3-0.6,0.6-0.6h0.9c0.3,0,0.6,0.3,0.6,0.6v29c0,0.3-0.3,0.6-0.6,0.6h-0.9
		c-0.3,0-0.6-0.3-0.6-0.6V470z"/>
	<path class="st0" d="M178.8,497.9c-0.6,0.5-2.7,2.1-6,2.1c-5.8,0-9.9-4.6-9.9-10.4s3.9-10.3,9.4-10.3c3.7,0,6.1,1.8,6.7,2.3
		l0.2-1.4c0-0.4,0.2-0.5,0.6-0.5h0.3c0.3,0,0.7,0.2,0.7,0.6V500c0,5.7-3.8,8.9-8.8,8.9c-3.3,0-5.8-1.8-6.7-2.6
		c-0.3-0.3-0.3-0.5-0.1-0.7l0.4-0.6c0.3-0.3,0.5-0.3,0.9,0c0.8,0.6,3,2,5.5,2c3.9,0,6.9-2.4,6.9-7L178.8,497.9L178.8,497.9z
		 M178.8,483.7c-0.3-0.3-2.6-2.6-6.4-2.6c-4.6,0-7.6,3.8-7.6,8.4c0,4.9,3.2,8.6,8,8.6c3.4,0,5.7-2.1,6-2.4V483.7z"/>
	<path class="st0" d="M187.9,480.3c0-0.3,0.3-0.6,0.7-0.6h0.2c0.4,0,0.6,0.2,0.6,0.5l0.2,2.1c0.6-0.7,3.1-3.1,7-3.1
		c5.6,0,7.5,3.5,7.5,8.7v11c0,0.3-0.3,0.6-0.6,0.6h-0.6c-0.3,0-0.6-0.3-0.6-0.6V488c0-4.6-1.8-6.9-5.7-6.9c-4,0-6.6,3.1-6.7,3.4
		v14.4c0,0.4-0.2,0.6-0.6,0.6h-0.7c-0.4,0-0.6-0.3-0.6-0.6L187.9,480.3L187.9,480.3z"/>
	<path class="st0" d="M210.3,472.5c0-0.9,0.8-1.7,1.7-1.7s1.7,0.7,1.7,1.7c0,0.9-0.7,1.6-1.7,1.6
		C211.1,474.2,210.3,473.4,210.3,472.5 M211.1,480.3c0-0.3,0.3-0.6,0.6-0.6h0.6c0.3,0,0.6,0.3,0.6,0.6v18.6c0,0.4-0.2,0.6-0.6,0.6
		h-0.7c-0.4,0-0.6-0.3-0.6-0.6L211.1,480.3L211.1,480.3z"/>
	<path class="st0" d="M221.2,481.5h-2.4c-0.5,0-0.6-0.3-0.6-0.6v-0.7c0-0.4,0.3-0.5,0.6-0.5h2.4v-5.4c0-0.4,0.3-0.6,0.7-0.6h0.6
		c0.3,0,0.6,0.3,0.6,0.6v5.5h7c0.4,0,0.7,0.3,0.7,0.6v0.6c0,0.4-0.3,0.6-0.7,0.6h-7v13c0,2.6,0.4,3.7,2.7,3.7c2.2,0,4-1.2,4.6-1.6
		c0.5-0.3,0.6,0,0.8,0.2l0.3,0.6c0.2,0.3,0.1,0.6-0.2,0.8c-0.7,0.6-3.1,1.9-5.8,1.9c-3.7,0-4.3-2.5-4.3-5.3L221.2,481.5L221.2,481.5
		z"/>
	<path class="st0" d="M244.1,479.2c5.2,0,8.9,4,8.9,9c0,0.8,0,1.9-0.7,1.9h-15.9c0.1,4.4,3.4,7.9,7.7,7.9c2.8,0,4.9-1.2,6.1-2
		c0.4-0.3,0.6-0.3,0.9,0l0.5,0.7c0.2,0.2,0.1,0.5-0.2,0.8c-1.2,0.9-4.1,2.3-7.2,2.3c-5.8,0-9.6-4.6-9.6-10.4
		C234.5,483.9,238.3,479.2,244.1,479.2 M251.1,488.4c0-3.9-2.5-7.3-7-7.3c-4.3,0-7.4,3.2-7.6,7.3H251.1z"/>
	<path class="st0" d="M269.8,481.5h-2.4c-0.5,0-0.6-0.3-0.6-0.6v-0.7c0-0.4,0.3-0.5,0.6-0.5h2.4v-5.4c0-0.4,0.3-0.6,0.7-0.6h0.6
		c0.3,0,0.6,0.3,0.6,0.6v5.5h7c0.4,0,0.7,0.3,0.7,0.6v0.6c0,0.4-0.3,0.6-0.7,0.6h-7v13c0,2.6,0.4,3.7,2.7,3.7c2.2,0,4-1.2,4.6-1.6
		c0.5-0.3,0.6,0,0.8,0.2l0.3,0.6c0.2,0.3,0.1,0.6-0.2,0.8c-0.7,0.6-3.1,1.9-5.8,1.9c-3.7,0-4.3-2.5-4.3-5.3L269.8,481.5L269.8,481.5
		z"/>
	<path class="st0" d="M284.5,470.1c0-0.3,0.3-0.6,0.7-0.6h0.6c0.3,0,0.6,0.3,0.6,0.6v12.2c0.6-0.6,3-3.1,6.8-3.1
		c5.2,0,7.4,3.2,7.4,8.8v10.9c0,0.3-0.3,0.6-0.6,0.6h-0.6c-0.3,0-0.6-0.3-0.6-0.6V488c0-4.6-1.8-6.9-5.6-6.9c-3.8,0-6.2,3-6.7,3.7
		v14.1c0,0.4-0.2,0.6-0.6,0.6H285c-0.4,0-0.6-0.3-0.6-0.6v-28.8H284.5z"/>
	<path class="st0" d="M315.9,479.2c5.2,0,8.9,4,8.9,9c0,0.8,0,1.9-0.7,1.9h-15.9c0.1,4.4,3.4,7.9,7.7,7.9c2.8,0,4.9-1.2,6.1-2
		c0.4-0.3,0.6-0.3,0.9,0l0.5,0.7c0.2,0.2,0.1,0.5-0.2,0.8c-1.2,0.9-4.1,2.3-7.2,2.3c-5.8,0-9.6-4.6-9.6-10.4
		C306.3,483.9,310.1,479.2,315.9,479.2 M322.9,488.4c0-3.9-2.5-7.3-7-7.3c-4.3,0-7.4,3.2-7.6,7.3H322.9z"/>
	<path class="st0" d="M342.6,509.1c0,0.3-0.4,0.6-0.7,0.6h-0.6c-0.4,0-0.6-0.3-0.6-0.6v-28.8c0-0.4,0.3-0.6,0.7-0.6h0.3
		c0.3,0,0.5,0.1,0.6,0.5l0.2,1.4c0.6-0.5,3-2.3,6.7-2.3c5.5,0,9.4,4.5,9.4,10.3s-4.1,10.4-9.9,10.4c-3.3,0-5.5-1.6-6-2.1v11.2H342.6
		z M348.6,498.1c4.8,0,8-3.8,8-8.6c0-4.6-3.1-8.4-7.6-8.4c-3.8,0-6.1,2.3-6.4,2.6v12C342.8,496,345.2,498.1,348.6,498.1"/>
	<path class="st0" d="M373,479.2c5.5,0,10,4.7,10,10.3c0,5.8-4.4,10.4-10,10.4c-5.7,0-10-4.6-10-10.4
		C363,483.9,367.3,479.2,373,479.2 M373,498.1c4.4,0,7.9-3.8,7.9-8.6c0-4.6-3.5-8.5-7.9-8.5c-4.5,0-8.1,3.8-8.1,8.5
		C364.9,494.3,368.4,498.1,373,498.1"/>
	<path class="st0" d="M387.5,497.1l0.4-0.7c0.2-0.3,0.6-0.3,0.9-0.1c0.5,0.4,2.6,1.9,5.4,1.9c3,0,4.9-1.5,4.9-3.6
		c0-2.3-2.4-3.4-5.8-4.6c-3.5-1.2-5.9-2.6-5.9-5.8c0-2.1,1.8-5.1,6.4-5.1c2.6,0,4.6,0.9,5.6,1.5c0.3,0.2,0.4,0.6,0.3,0.9l-0.3,0.5
		c-0.2,0.3-0.5,0.3-0.9,0.2c-0.5-0.3-2.6-1.3-4.7-1.3c-3.1,0-4.5,1.8-4.5,3.3c0,2,2,3.1,4.9,4.1c3.7,1.4,6.8,2.5,6.8,6.3
		c0,3-2.8,5.3-6.8,5.3c-3.4,0-5.4-1.4-6.5-2.2C387.5,497.6,387.4,497.4,387.5,497.1"/>
	<path class="st0" d="M405.3,497.1l0.4-0.7c0.2-0.3,0.6-0.3,0.9-0.1c0.5,0.4,2.6,1.9,5.4,1.9c3,0,4.9-1.5,4.9-3.6
		c0-2.3-2.4-3.4-5.8-4.6c-3.5-1.2-5.9-2.6-5.9-5.8c0-2.1,1.8-5.1,6.4-5.1c2.6,0,4.6,0.9,5.6,1.5c0.3,0.2,0.4,0.6,0.3,0.9l-0.3,0.5
		c-0.2,0.3-0.5,0.3-0.9,0.2c-0.5-0.3-2.6-1.3-4.7-1.3c-3.1,0-4.5,1.8-4.5,3.3c0,2,2,3.1,4.9,4.1c3.7,1.4,6.8,2.5,6.8,6.3
		c0,3-2.8,5.3-6.8,5.3c-3.3,0-5.4-1.4-6.5-2.2C405.3,497.6,405.1,497.4,405.3,497.1"/>
	<path class="st0" d="M423.5,472.5c0-0.9,0.8-1.7,1.7-1.7c0.9,0,1.7,0.7,1.7,1.7c0,0.9-0.7,1.6-1.7,1.6
		C424.3,474.2,423.5,473.4,423.5,472.5 M424.4,480.3c0-0.3,0.3-0.6,0.6-0.6h0.6c0.3,0,0.6,0.3,0.6,0.6v18.6c0,0.4-0.2,0.6-0.6,0.6
		h-0.7c-0.4,0-0.6-0.3-0.6-0.6v-18.6H424.4z"/>
	<path class="st0" d="M442.2,500c-3.8,0-6.4-2.2-7-2.9l-0.1,1.8c-0.1,0.5-0.3,0.6-0.7,0.6h-0.3c-0.3,0-0.6-0.3-0.6-0.6v-28.8
		c0-0.3,0.3-0.6,0.6-0.6h0.6c0.4,0,0.6,0.3,0.6,0.6v11.1c0,0,2.5-1.9,6.3-1.9c5.6,0,9.6,4.6,9.6,10.4
		C451.2,495.4,447.3,500,442.2,500 M441.4,481.1c-3.6,0-6,2.2-6,2.2v11.5c0.1,0.2,2.4,3.4,6.7,3.4c4.2,0,7.3-4,7.3-8.6
		C449.3,484.9,445.9,481.1,441.4,481.1"/>
	<path class="st0" d="M456.3,472.5c0-0.9,0.8-1.7,1.7-1.7c0.9,0,1.7,0.7,1.7,1.7c0,0.9-0.7,1.6-1.7,1.6
		C457.1,474.2,456.3,473.4,456.3,472.5 M457.1,480.3c0-0.3,0.3-0.6,0.6-0.6h0.6c0.3,0,0.6,0.3,0.6,0.6v18.6c0,0.4-0.2,0.6-0.6,0.6
		h-0.7c-0.4,0-0.6-0.3-0.6-0.6v-18.6H457.1z"/>
	<path class="st0" d="M466.5,470.1c0-0.3,0.3-0.6,0.6-0.6h0.6c0.3,0,0.6,0.3,0.6,0.6v28.8c0,0.4-0.2,0.6-0.6,0.6H467
		c-0.4,0-0.6-0.3-0.6-0.6v-28.8H466.5z"/>
	<path class="st0" d="M475,472.5c0-0.9,0.8-1.7,1.7-1.7c0.9,0,1.7,0.7,1.7,1.7c0,0.9-0.7,1.6-1.7,1.6
		C475.8,474.2,475,473.4,475,472.5 M475.8,480.3c0-0.3,0.3-0.6,0.6-0.6h0.6c0.3,0,0.6,0.3,0.6,0.6v18.6c0,0.4-0.2,0.6-0.6,0.6h-0.7
		c-0.4,0-0.6-0.3-0.6-0.6v-18.6H475.8z"/>
	<path class="st0" d="M485.8,481.5h-2.4c-0.5,0-0.6-0.3-0.6-0.6v-0.7c0-0.4,0.3-0.5,0.6-0.5h2.4v-5.4c0-0.4,0.3-0.6,0.7-0.6h0.6
		c0.3,0,0.6,0.3,0.6,0.6v5.5h7c0.4,0,0.7,0.3,0.7,0.6v0.6c0,0.4-0.3,0.6-0.7,0.6h-7v13c0,2.6,0.4,3.7,2.7,3.7c2.2,0,4-1.2,4.6-1.6
		c0.5-0.3,0.6,0,0.8,0.2l0.3,0.6c0.2,0.3,0.1,0.6-0.2,0.8c-0.7,0.6-3.1,1.9-5.8,1.9c-3.7,0-4.3-2.5-4.3-5.3L485.8,481.5L485.8,481.5
		z"/>
	<path class="st0" d="M499.7,472.5c0-0.9,0.8-1.7,1.7-1.7c0.9,0,1.7,0.7,1.7,1.7c0,0.9-0.7,1.6-1.7,1.6
		C500.5,474.2,499.7,473.4,499.7,472.5 M500.5,480.3c0-0.3,0.3-0.6,0.6-0.6h0.6c0.3,0,0.6,0.3,0.6,0.6v18.6c0,0.4-0.2,0.6-0.6,0.6
		H501c-0.4,0-0.6-0.3-0.6-0.6v-18.6H500.5z"/>
	<path class="st0" d="M517.9,479.2c5.2,0,8.9,4,8.9,9c0,0.8,0,1.9-0.7,1.9h-15.9c0.1,4.4,3.4,7.9,7.7,7.9c2.8,0,4.9-1.2,6.1-2
		c0.4-0.3,0.6-0.3,0.9,0l0.5,0.7c0.2,0.2,0.1,0.5-0.2,0.8c-1.2,0.9-4.1,2.3-7.2,2.3c-5.8,0-9.6-4.6-9.6-10.4
		C508.3,483.9,512.1,479.2,517.9,479.2 M524.9,488.4c0-3.9-2.5-7.3-7-7.3c-4.3,0-7.4,3.2-7.6,7.3H524.9z"/>
	<path class="st0" d="M531.1,497.1l0.4-0.7c0.2-0.3,0.6-0.3,0.9-0.1c0.5,0.4,2.6,1.9,5.4,1.9c3,0,4.9-1.5,4.9-3.6
		c0-2.3-2.4-3.4-5.8-4.6c-3.5-1.2-5.9-2.6-5.9-5.8c0-2.1,1.8-5.1,6.4-5.1c2.6,0,4.6,0.9,5.6,1.5c0.3,0.2,0.4,0.6,0.3,0.9L543,482
		c-0.2,0.3-0.5,0.3-0.9,0.2c-0.5-0.3-2.6-1.3-4.7-1.3c-3.1,0-4.5,1.8-4.5,3.3c0,2,2,3.1,4.9,4.1c3.7,1.4,6.8,2.5,6.8,6.3
		c0,3-2.8,5.3-6.8,5.3c-3.4,0-5.4-1.4-6.5-2.2C531.1,497.6,531,497.4,531.1,497.1"/>
	<path class="st0" d="M367.9,194.5l10.3,8.4c10.3-12.5,15-28.9,13-45c-1.2-9.5-4.7-18.6-10.1-26.4l-10.9,7.6
		c4.3,6.1,6.9,13,7.9,20.4C379.5,172.3,376,184.7,367.9,194.5"/>
	<path class="st0" d="M289.2,180.4l-12.6,4.3c5.9,17.3,19.9,31.1,37.3,36.9l4.2-12.6C304.6,204.5,293.8,193.8,289.2,180.4"/>
	<path class="st0" d="M280.2,138l11.8,6.2c7-13.2,20-22.2,34.8-24.1c8.4-1.1,17,0.2,24.7,3.7l5.5-12.1c-9.9-4.5-21-6.2-31.8-4.8
		C306,109.3,289.2,120.9,280.2,138"/>
	<path class="st0" d="M445.6,87l-2.3,13.1c26.7,4.6,44.7,30.2,40.1,57c-2.2,13-9.4,24.3-20.2,31.9c-7.1,5-15.1,7.9-23.5,8.7
		c1.3-2.3,2.4-4.7,3.4-7.3c6.1-15.5,5.8-32.5-0.9-47.8l-12.2,5.3c5.2,12,5.5,25.4,0.7,37.6c-4.8,12.3-14.2,21.9-26.3,27.2
		c-4.4,1.9-8.9,3.1-13.5,3.7c-21.2,2.7-42.6-8.7-51.5-29.2l-12.2,5.3c11.4,26,38.5,40.5,65.4,37c5.8-0.7,11.5-2.3,17.1-4.7
		c7.7-3.3,14.5-8.1,20.2-13.9c4.3,0.4,8.7,0.3,12.9-0.3c10-1.3,19.5-5,28-10.9c13.7-9.6,22.7-24,25.6-40.5
		C502.4,125.4,479.6,92.9,445.6,87"/>
	<rect x="310.6" y="234.5" class="st0" width="47" height="13.2"/>
	<rect x="218.9" y="199.6" transform="matrix(0.866 -0.5 0.5 0.866 -70.626 148.8264)" class="st0" width="47" height="13.2"/>
	<rect x="185.1" y="9" transform="matrix(0.7071 -0.7071 0.7071 0.7071 33.1288 145.0548)" class="st0" width="13.2" height="47"/>
	<rect x="327.5" y="260.6" class="st0" width="13.2" height="13.2"/>
	
		<rect x="425.4" y="227.5" transform="matrix(0.7071 -0.7072 0.7072 0.7071 -38.9787 374.0746)" class="st0" width="13.2" height="13.2"/>
	
		<rect x="215.6" y="56.7" transform="matrix(0.7071 -0.7071 0.7071 0.7071 20.3405 175.6454)" class="st0" width="13.2" height="13.2"/>
	
		<rect x="307.2" y="36.2" transform="matrix(0.7071 -0.7071 0.7071 0.7071 61.6583 234.4268)" class="st0" width="13.2" height="13.2"/>
	<rect x="414" y="2.4" transform="matrix(0.4999 -0.8661 0.8661 0.4999 202.5753 368.74)" class="st0" width="13.2" height="13.2"/>
	<path class="st0" d="M407.4,45.6l9.2-16.1l-11.4-6.6l-9.6,16.7v-0.1c-6.8-2.6-14.1-4.1-21.7-4.2c-16.8-0.3-32.6,6-44.6,17.7
		c-4.4,4.3-8.1,9.1-11,14.3c-12.4-8.2-27.5-11.8-42.4-9.9c-34.2,4.4-58.5,35.7-54.1,69.9c2,15.9,10,30.3,22.4,40.4l8.4-10.3
		c-9.8-8-16-19.3-17.6-31.8c-3.4-26.9,15.7-51.6,42.6-55c12.7-1.6,25.2,1.6,35.4,9.2c-1.6,5.5-2.5,11.2-2.6,17l13.3,0.2
		c0.2-13.1,5.5-25.4,14.9-34.5c9.5-9.2,21.9-14.1,35.2-13.9c5.2,0.1,10.3,1,15,2.6l0.2,0.1l-9.5,16.4l11.4,6.6l9.9-17.1
		c13.3,9,21.9,24.3,21.7,41.4l13.3,0.2C435.9,76.6,424.6,57,407.4,45.6"/>
</g>
</svg>
