<?xml version="1.0" encoding="utf-8"?>
<!-- Generator: Adobe Illustrator 22.0.1, SVG Export Plug-In . SVG Version: 6.00 Build 0)  -->
<svg version="1.1" id="Layer_1" xmlns="http://www.w3.org/2000/svg" xmlns:xlink="http://www.w3.org/1999/xlink" x="0px" y="0px"
	 width="185.1px" height="70.1px" viewBox="0 0 185.1 70.1" style="enable-background:new 0 0 185.1 70.1;" xml:space="preserve">
<style type="text/css">
	.st0{fill:#1D427C;}
	.st1{fill:#59B6DD;}
</style>
<g>
	<path class="st0" d="M96.9,46.1c0,4.5-1,8.5-3.1,12c-2,3.5-4.6,6.3-7.7,8.1c-2.3,1.4-4.9,2.4-7.7,3c-2.8,0.6-6.1,0.8-9.9,0.8H51.5
		V22h17.4c3.9,0,7.3,0.3,10.1,1c2.8,0.7,5.2,1.6,7.2,2.8c3.3,2,5.9,4.8,7.8,8.2C95.9,37.4,96.9,41.4,96.9,46.1 M84.1,46
		c0-3.2-0.6-5.9-1.7-8.1c-1.2-2.2-3-4-5.5-5.3c-1.3-0.6-2.6-1-3.9-1.3c-1.3-0.2-3.3-0.3-6-0.3h-3.1V61H67c2.9,0,5.1-0.1,6.5-0.4
		c1.4-0.3,2.7-0.8,4-1.5c2.3-1.3,3.9-3,5-5.2C83.6,51.8,84.1,49.2,84.1,46"/>
	<path class="st0" d="M146.7,70h-15.1l-13.1-17.6h-5.7V70h-12.3V22h20.8c2.8,0,5.3,0.2,7.3,0.5c2,0.3,4,1,5.8,2.1
		c1.8,1.1,3.2,2.5,4.3,4.2c1.1,1.7,1.6,3.9,1.6,6.4c0,3.5-0.8,6.4-2.5,8.7c-1.7,2.2-4,4.1-7.1,5.6L146.7,70z M127.3,36.7
		c0-1.2-0.2-2.2-0.7-3.1c-0.5-0.9-1.3-1.5-2.5-2c-0.8-0.3-1.8-0.6-2.9-0.6c-1.1-0.1-2.4-0.1-3.9-0.1h-4.5v12.9h3.8
		c2,0,3.6-0.1,5-0.3c1.3-0.2,2.4-0.6,3.4-1.3c0.9-0.7,1.5-1.4,1.9-2.2C127.1,39.2,127.3,38.1,127.3,36.7"/>
	<path class="st0" d="M184.4,22h-41.9v9.3h15V70h12.4V31.3h9.1C180.7,27.6,182.5,24.6,184.4,22"/>
	<path class="st1" d="M18.5,0h27v19.1C32.1,16.2,22.6,9.4,18.5,0"/>
	<path class="st1" d="M44.7,21.3L44.7,21.3c-5.5,0.1-21,0.1-44.7-12.2v20.2v28.1h0C12.7,26.6,38.6,21.8,44.7,21.3"/>
	<path class="st0" d="M179,67.1c0-0.4,0.1-0.8,0.2-1.2c0.2-0.4,0.4-0.7,0.7-1c0.3-0.3,0.6-0.5,1-0.6c0.4-0.2,0.8-0.2,1.2-0.2
		s0.8,0.1,1.2,0.2c0.4,0.2,0.7,0.4,1,0.6c0.3,0.3,0.5,0.6,0.7,1c0.2,0.4,0.2,0.8,0.2,1.2c0,0.4-0.1,0.8-0.2,1.2
		c-0.2,0.4-0.4,0.7-0.7,1c-0.3,0.3-0.6,0.5-1,0.6c-0.4,0.2-0.8,0.2-1.2,0.2s-0.8-0.1-1.2-0.2c-0.4-0.2-0.7-0.4-1-0.6
		c-0.3-0.3-0.5-0.6-0.7-1C179.1,67.9,179,67.5,179,67.1 M179.6,67.1c0,0.4,0.1,0.7,0.2,1c0.1,0.3,0.3,0.6,0.5,0.8
		c0.2,0.2,0.5,0.4,0.8,0.5c0.3,0.1,0.6,0.2,1,0.2s0.7-0.1,1-0.2c0.3-0.1,0.6-0.3,0.8-0.5c0.2-0.2,0.4-0.5,0.5-0.8
		c0.1-0.3,0.2-0.7,0.2-1c0-0.4-0.1-0.7-0.2-1c-0.1-0.3-0.3-0.6-0.5-0.8c-0.2-0.2-0.5-0.4-0.8-0.5c-0.3-0.1-0.6-0.2-1-0.2
		s-0.7,0.1-1,0.2c-0.3,0.1-0.6,0.3-0.8,0.5c-0.2,0.2-0.4,0.5-0.5,0.8C179.6,66.4,179.6,66.7,179.6,67.1 M180.9,65.3h1.3
		c0.8,0,1.2,0.3,1.2,1c0,0.3-0.1,0.6-0.3,0.7c-0.2,0.1-0.4,0.2-0.7,0.3l1,1.6H183l-1-1.5h-0.6v1.5h-0.5V65.3z M181.5,66.9h0.6
		c0.1,0,0.2,0,0.4,0c0.1,0,0.2,0,0.3-0.1c0.1,0,0.2-0.1,0.2-0.2c0.1-0.1,0.1-0.2,0.1-0.3c0-0.1,0-0.2-0.1-0.3c0-0.1-0.1-0.1-0.2-0.2
		c-0.1,0-0.2-0.1-0.3-0.1c-0.1,0-0.2,0-0.3,0h-0.7V66.9z"/>
</g>
</svg>
